<svg xmlns="http://www.w3.org/2000/svg" width="46.011" height="42.417" viewBox="0 0 46.011 42.417">
  <defs>
    <style>
      .cls-1 {
        fill: #2f415b;
        stroke: rgba(0,0,0,0);
        stroke-miterlimit: 10;
      }
    </style>
  </defs>
  <path id="Convidar_-icon_未选中" data-name="Convidar -icon 未选中" class="cls-1" d="M29.479,41.24,18.338,36.3a2.039,2.039,0,0,1-.087-3.631l10.507-5.338A1.888,1.888,0,0,1,31.457,29l.137,2.224a10.031,10.031,0,0,0,4.652-2.449,10.561,10.561,0,0,0-6.3-18.256l.3-5.681c8.591.5,15.2,8.156,14.732,17.057a16.245,16.245,0,0,1-5.187,11.164,15.243,15.243,0,0,1-7.848,3.882l.144,2.338A1.951,1.951,0,0,1,30.21,41.4,1.8,1.8,0,0,1,29.479,41.24ZM4.008,31.212A16.431,16.431,0,0,1,.024,19.506,15.954,15.954,0,0,1,13.059,4.467l-.145-2.344A1.907,1.907,0,0,1,15.527.157L26.668,5.1a2.04,2.04,0,0,1,.087,3.631L16.248,14.066a1.883,1.883,0,0,1-2.7-1.665l-.137-2.221A10.386,10.386,0,0,0,5.4,19.824a10.615,10.615,0,0,0,2.579,7.545,10.084,10.084,0,0,0,7.074,3.512l-.3,5.681A15.337,15.337,0,0,1,4.008,31.212Zm17.7-9.96a5.275,5.275,0,1,1,5.274,5.389A5.332,5.332,0,0,1,21.713,21.252Zm-8.433,0a5.334,5.334,0,0,1,5.27-5.389,5.156,5.156,0,0,1,3.164,1.076,5.469,5.469,0,0,0,0,8.626,5.156,5.156,0,0,1-3.164,1.076A5.337,5.337,0,0,1,13.279,21.252Z" transform="translate(0.503 0.519)"/>
</svg>
