<svg width="11" height="11" viewBox="0 0 11 11" fill="none" xmlns="http://www.w3.org/2000/svg">
<path d="M9.73364 2.53701C10.085 2.18562 10.085 1.61495 9.73364 1.26355C9.38224 0.912151 8.81157 0.912151 8.46017 1.26355L5.5 4.22653L2.53701 1.26636C2.18562 0.914962 1.61495 0.914962 1.26355 1.26636C0.912151 1.61776 0.912151 2.18843 1.26355 2.53982L4.22653 5.5L1.26636 8.46299C0.914962 8.81438 0.914962 9.38505 1.26636 9.73645C1.61776 10.0878 2.18843 10.0878 2.53982 9.73645L5.5 6.77346L8.46299 9.73364C8.81438 10.085 9.38505 10.085 9.73645 9.73364C10.0878 9.38224 10.0878 8.81157 9.73645 8.46017L6.77347 5.5L9.73364 2.53701Z" fill="black" stroke="black"/>
</svg>
