<svg width="94" height="132" viewBox="0 0 94 132" fill="none" xmlns="http://www.w3.org/2000/svg">
<g clip-path="url(#clip0_302_3)">
<g opacity="0.45">
<path d="M36.8135 5.72095L39.797 2.28721C40.0581 1.98644 40.376 1.74007 40.7324 1.56217C41.0887 1.38426 41.4767 1.27831 41.874 1.25037C42.2714 1.22242 42.6703 1.27303 43.0481 1.3993C43.4259 1.52557 43.7751 1.72503 44.0758 1.98628L72.6903 26.8487L67.7171 32.5723L36.8135 5.72095Z" fill="url(#paint0_linear_302_3)"/>
<path d="M34.8227 8.00823L39.7958 2.28458C40.3233 1.67745 41.0704 1.30475 41.8727 1.24846C42.675 1.19217 43.4669 1.4569 44.074 1.98441L48.6553 5.96502L41.6932 13.9778C41.3012 14.429 40.8242 14.7985 40.2895 15.0652C39.7547 15.332 39.1726 15.4909 38.5765 15.5327C37.9803 15.5745 37.3817 15.4985 36.815 15.309C36.2482 15.1195 35.7243 14.8203 35.2731 14.4283C34.822 14.0363 34.4525 13.5593 34.1857 13.0246C33.9189 12.4898 33.7601 11.9077 33.7183 11.3115C33.6765 10.7154 33.7525 10.1168 33.942 9.55005C34.1314 8.98327 34.4307 8.45935 34.8227 8.00823Z" fill="#107FF8"/>
<path d="M22.742 24.678H71.258C77.2896 24.678 83.0741 27.074 87.339 31.339C91.604 35.6039 94 41.3884 94 47.42V76.226C94 77.0301 93.6806 77.8013 93.1119 78.3699C92.5433 78.9385 91.7721 79.258 90.968 79.258H3.032C2.22786 79.258 1.45666 78.9385 0.888052 78.3699C0.319442 77.8013 0 77.0301 0 76.226L0 47.42C0 41.3884 2.39603 35.6039 6.66098 31.339C10.9259 27.074 16.7104 24.678 22.742 24.678Z" fill="url(#paint1_radial_302_3)"/>
<path d="M73.5317 29.2269C75.8214 29.2268 78.0886 29.6777 80.2041 30.5538C82.3195 31.4299 84.2416 32.7142 85.8607 34.3332C87.4798 35.9522 88.7642 37.8742 89.6404 39.9896C90.5167 42.105 90.9677 44.3723 90.9677 46.6619V75.4179C90.9677 76.0346 90.7227 76.6259 90.2867 77.062C89.8507 77.498 89.2593 77.7429 88.6427 77.7429H58.4217C57.8051 77.7429 57.2137 77.498 56.7777 77.062C56.3416 76.6259 56.0967 76.0346 56.0967 75.4179V46.6619C56.0967 42.0379 57.9336 37.6032 61.2033 34.3335C64.473 31.0638 68.9076 29.2269 73.5317 29.2269Z" fill="url(#paint2_linear_302_3)"/>
<path d="M26.5321 39.5809H11.3711C11.2385 39.5809 11.1113 39.5283 11.0175 39.4345C10.9238 39.3407 10.8711 39.2135 10.8711 39.0809C10.8711 38.9483 10.9238 38.8212 11.0175 38.7274C11.1113 38.6336 11.2385 38.5809 11.3711 38.5809H26.5321C26.6647 38.5809 26.7919 38.6336 26.8856 38.7274C26.9794 38.8212 27.0321 38.9483 27.0321 39.0809C27.0321 39.2135 26.9794 39.3407 26.8856 39.4345C26.7919 39.5283 26.6647 39.5809 26.5321 39.5809Z" fill="white"/>
<path d="M35.6289 39.5809H31.8389C31.7063 39.5809 31.5791 39.5283 31.4853 39.4345C31.3915 39.3407 31.3389 39.2135 31.3389 39.0809C31.3389 38.9483 31.3915 38.8212 31.4853 38.7274C31.5791 38.6336 31.7063 38.5809 31.8389 38.5809H35.6289C35.7615 38.5809 35.8887 38.6336 35.9824 38.7274C36.0762 38.8212 36.1289 38.9483 36.1289 39.0809C36.1289 39.2135 36.0762 39.3407 35.9824 39.4345C35.8887 39.5283 35.7615 39.5809 35.6289 39.5809Z" fill="white"/>
<path d="M49.2745 39.5809H40.9355C40.8029 39.5809 40.6758 39.5283 40.582 39.4345C40.4882 39.3407 40.4355 39.2135 40.4355 39.0809C40.4355 38.9483 40.4882 38.8212 40.582 38.7274C40.6758 38.6336 40.8029 38.5809 40.9355 38.5809H49.2745C49.4072 38.5809 49.5343 38.6336 49.6281 38.7274C49.7219 38.8212 49.7745 38.9483 49.7745 39.0809C49.7745 39.2135 49.7219 39.3407 49.6281 39.4345C49.5343 39.5283 49.4072 39.5809 49.2745 39.5809Z" fill="white"/>
<path d="M34.8711 79.259H47.0001V131.81H34.8711V79.259Z" fill="url(#paint3_linear_302_3)"/>
<path d="M47 79.259H54.581V131.81H47V79.259Z" fill="url(#paint4_linear_302_3)"/>
<path d="M14.2106 56.0187C14.0787 56.0442 13.9423 56.0342 13.8155 55.9897C13.6887 55.9452 13.576 55.8679 13.4888 55.7656C13.4017 55.6633 13.3433 55.5397 13.3196 55.4074C13.2959 55.2751 13.3077 55.1389 13.3539 55.0127C13.3989 54.8929 14.4642 52.0616 16.7827 51.558L16.8563 51.5437C18.266 51.2697 19.7503 51.9092 21.2695 53.4466C21.3395 53.5174 21.3949 53.6013 21.4325 53.6935C21.4701 53.7857 21.4892 53.8844 21.4886 53.984C21.488 54.0836 21.4679 54.1821 21.4293 54.2738C21.3906 54.3656 21.3343 54.4489 21.2635 54.5189C21.1927 54.5889 21.1088 54.6443 21.0166 54.6819C20.9244 54.7195 20.8257 54.7386 20.7261 54.738C20.6265 54.7375 20.528 54.7173 20.4362 54.6787C20.3445 54.64 20.2612 54.5837 20.1912 54.5129C19.0499 53.3585 18.0193 52.862 17.1427 53.0324L17.1044 53.0398C15.6147 53.363 14.7835 55.5121 14.7771 55.5368C14.7319 55.659 14.6561 55.7675 14.5569 55.8519C14.4577 55.9363 14.3384 55.9938 14.2106 56.0187Z" fill="#707070"/>
<path d="M29.8678 52.9748C29.7359 53.0003 29.5995 52.9903 29.4727 52.9458C29.3459 52.9013 29.2332 52.824 29.1461 52.7216C29.0589 52.6193 29.0005 52.4957 28.9768 52.3634C28.9531 52.2312 28.965 52.095 29.0111 51.9688C29.0561 51.849 30.1214 49.0177 32.4399 48.514L32.5136 48.4997C33.9232 48.2257 35.4075 48.8653 36.9267 50.4026C36.9968 50.4734 37.0521 50.5573 37.0897 50.6495C37.1273 50.7418 37.1464 50.8405 37.1458 50.94C37.1453 51.0396 37.1251 51.1381 37.0865 51.2299C37.0479 51.3217 36.9915 51.405 36.9207 51.475C36.8499 51.545 36.766 51.6004 36.6738 51.638C36.5816 51.6756 36.4829 51.6946 36.3833 51.6941C36.2838 51.6935 36.1853 51.6733 36.0935 51.6347C36.0017 51.5961 35.9184 51.5398 35.8484 51.469C34.7071 50.3145 33.6765 49.8181 32.7999 49.9885L32.7616 49.9959C31.2719 50.3191 30.4407 52.4682 30.4343 52.4928C30.3892 52.615 30.3133 52.7235 30.2141 52.808C30.1149 52.8924 29.9957 52.9498 29.8678 52.9748Z" fill="#707070"/>
<path d="M27.2677 67.4474C25.6285 67.6802 23.9621 67.2812 22.606 66.3313C21.2562 65.3916 20.3111 63.9768 19.96 62.37L32.8919 60.5525C32.9974 62.1937 32.4793 63.8141 31.4412 65.0896C30.3995 66.3765 28.9076 67.2193 27.2677 67.4474Z" fill="#707070"/>
</g>
</g>
<defs>
<linearGradient id="paint0_linear_302_3" x1="39.3" y1="2.85912" x2="70.2037" y2="29.7105" gradientUnits="userSpaceOnUse">
<stop stop-color="#0A9DFF"/>
<stop offset="1" stop-color="#1A52EE"/>
</linearGradient>
<radialGradient id="paint1_radial_302_3" cx="0" cy="0" r="1" gradientUnits="userSpaceOnUse" gradientTransform="translate(7.614 105.446) scale(27.73 27.7261)">
<stop stop-color="#C2C2C2"/>
<stop offset="1" stop-color="#ECECEC"/>
</radialGradient>
<linearGradient id="paint2_linear_302_3" x1="73.5322" y1="29.2269" x2="73.5322" y2="77.7429" gradientUnits="userSpaceOnUse">
<stop stop-color="#ABADAF"/>
<stop offset="1" stop-color="#CDD1D4"/>
</linearGradient>
<linearGradient id="paint3_linear_302_3" x1="42.4517" y1="131.81" x2="38.8302" y2="86.0466" gradientUnits="userSpaceOnUse">
<stop stop-color="white" stop-opacity="0"/>
<stop offset="1" stop-color="#C1C1C1"/>
</linearGradient>
<linearGradient id="paint4_linear_302_3" x1="51.7381" y1="131.81" x2="45.9997" y2="86.4866" gradientUnits="userSpaceOnUse">
<stop stop-color="white" stop-opacity="0"/>
<stop offset="1" stop-color="#818181"/>
</linearGradient>
<clipPath id="clip0_302_3">
<rect width="94" height="131.81" fill="white"/>
</clipPath>
</defs>
</svg>
