<svg xmlns="http://www.w3.org/2000/svg" xmlns:xlink="http://www.w3.org/1999/xlink" version="1.1" id="图层_1" x="0px" y="0px" viewBox="0 0 128 128" style="enable-background:new 0 0 128 128;" xml:space="preserve">
<style type="text/css">
	.st0{fill:#FFFFFF;}
</style>
<g>
	<g>
		<path class="st0" d="M31.6,78.6H24l-2.8,15.9H1l10.8-61.2h29.6c16.6,0,24.7,7.9,22.2,21.9c-1.6,8.9-6.1,15.5-13.1,19.4L59,94.5    H36.2L31.6,78.6z M36.1,63.3c4.4,0,7.4-2.7,8.2-7.4c0.8-4.5-1.3-7.2-5.6-7.2h-9.3l-2.6,14.6H36.1z"/>
		<path class="st0" d="M120.3,75.5c-2.1,12.1-12.7,18.2-24.8,19.5l-2.5,14H78.5l2.6-14.8c-7.3-1.4-14.1-4.5-19-8.7l10.2-15.2    c5.4,5.2,15.4,9.5,21.6,9.5c3,0,5.1-1,5.4-3.1c1.4-7.9-31.2-2.7-27.4-24.2c1.7-9.5,9-16.2,19.8-18.8l2.5-14.5h14.5l-2.4,13.6    c8,0.7,15.5,3.3,20.6,7l-10,15.4c-5.6-3.4-14.5-7.2-19.8-7.2c-2.3,0-3.9,0.7-4.2,2.5C91.7,58.1,124.2,53.3,120.3,75.5z"/>
	</g>
</g>
</svg>