<?xml version="1.0" encoding="UTF-8"?>
<!DOCTYPE svg PUBLIC "-//W3C//DTD SVG 1.1//EN" "http://www.w3.org/Graphics/SVG/1.1/DTD/svg11.dtd">
<svg xmlns="http://www.w3.org/2000/svg" version="1.1" width="273px" height="143px" style="shape-rendering:geometricPrecision; text-rendering:geometricPrecision; image-rendering:optimizeQuality; fill-rule:evenodd; clip-rule:evenodd" xmlns:xlink="http://www.w3.org/1999/xlink">
<g><path style="opacity:0.897" fill="#f4a24b" d="M 158.5,-0.5 C 165.167,-0.5 171.833,-0.5 178.5,-0.5C 182.584,0.756432 186.584,2.4231 190.5,4.5C 188.333,8.83333 186.167,13.1667 184,17.5C 182.224,18.5361 180.391,18.5361 178.5,17.5C 179.26,13.9734 180.594,10.64 182.5,7.5C 182.291,6.91395 181.957,6.41395 181.5,6C 170.635,2.04977 159.635,1.54977 148.5,4.5C 151.565,2.30093 154.898,0.634259 158.5,-0.5 Z"/></g>
<g><path style="opacity:0.978" fill="#fffdfc" d="M 63.5,11.5 C 64.7065,12.8804 64.3731,14.0471 62.5,15C 58.6756,18.0791 54.6756,20.9124 50.5,23.5C 43.7575,15.9325 36.5909,15.5991 29,22.5C 23.888,29.5782 24.388,36.0782 30.5,42C 31.745,42.7914 33.0783,43.2914 34.5,43.5C 37.2933,44.746 39.96,44.4127 42.5,42.5C 44.9113,41.483 46.578,39.8163 47.5,37.5C 52.085,40.4136 56.085,44.0802 59.5,48.5C 54.9696,54.4329 48.9696,57.7662 41.5,58.5C 27.27,61.2698 16.4367,56.6031 9,44.5C 7.71011,40.2695 7.21011,35.9362 7.5,31.5C 9.00146,18.1617 16.0015,8.99508 28.5,4C 41.7309,-0.0276024 53.3976,2.4724 63.5,11.5 Z"/></g>
<g><path style="opacity:0.97" fill="#fefefd" d="M 178.5,17.5 C 177.596,18.209 177.263,19.209 177.5,20.5C 171.842,17.9204 165.842,16.5871 159.5,16.5C 157.692,16.4914 156.025,16.9914 154.5,18C 153.269,19.1827 153.269,20.3493 154.5,21.5C 160.144,23.3957 165.81,25.229 171.5,27C 179.729,31.8977 181.729,38.7311 177.5,47.5C 173.165,53.6324 167.165,57.1324 159.5,58C 154.845,58.4992 150.179,58.6658 145.5,58.5C 139.2,58.3436 133.533,56.5103 128.5,53C 130.293,47.9025 132.96,43.4025 136.5,39.5C 137.183,39.8627 137.85,40.1961 138.5,40.5C 142.826,43.8229 147.826,45.1562 153.5,44.5C 155.655,44.628 157.655,44.128 159.5,43C 160.451,42.2825 160.617,41.4491 160,40.5C 152.51,38.4487 145.344,35.6153 138.5,32C 133.191,22.8443 134.525,14.511 142.5,7C 144.407,5.87803 146.407,5.04469 148.5,4.5C 159.635,1.54977 170.635,2.04977 181.5,6C 181.957,6.41395 182.291,6.91395 182.5,7.5C 180.594,10.64 179.26,13.9734 178.5,17.5 Z"/></g>
<g><path style="opacity:0.995" fill="#fffdfc" d="M 92.5,3.5 C 98.8333,3.5 105.167,3.5 111.5,3.5C 113.164,11.4943 114.831,19.4943 116.5,27.5C 119.464,37.3554 121.797,47.3554 123.5,57.5C 118.167,57.5 112.833,57.5 107.5,57.5C 106.504,57.5858 105.671,57.2524 105,56.5C 104.433,53.8323 103.933,51.1656 103.5,48.5C 97.013,47.346 90.3464,47.1794 83.5,48C 82.7476,48.6708 82.4142,49.5041 82.5,50.5C 80.412,52.3356 79.0787,54.6689 78.5,57.5C 71.7453,58.1229 65.412,57.4563 59.5,55.5C 60.9063,55.0269 61.573,54.0269 61.5,52.5C 61.3284,51.5084 61.6618,50.8417 62.5,50.5C 63.9063,50.0269 64.573,49.0269 64.5,47.5C 65.9063,47.0269 66.573,46.0269 66.5,44.5C 67.9063,44.0269 68.573,43.0269 68.5,41.5C 68.3284,40.5084 68.6618,39.8417 69.5,39.5C 70.9063,39.0269 71.573,38.0269 71.5,36.5C 72.9063,36.0269 73.573,35.0269 73.5,33.5C 74.9063,33.0269 75.573,32.0269 75.5,30.5C 75.3284,29.5084 75.6618,28.8417 76.5,28.5C 77.9063,28.0269 78.573,27.0269 78.5,25.5C 79.9063,25.0269 80.573,24.0269 80.5,22.5C 81.9063,22.0269 82.573,21.0269 82.5,19.5C 82.3284,18.5084 82.6618,17.8417 83.5,17.5C 84.9063,17.0269 85.573,16.0269 85.5,14.5C 86.9063,14.0269 87.573,13.0269 87.5,11.5C 88.9063,11.0269 89.573,10.0269 89.5,8.5C 90.9063,8.02694 91.573,7.02694 91.5,5.5C 91.3284,4.50838 91.6618,3.84171 92.5,3.5 Z M 98.5,24.5 C 99.4174,27.4173 100.084,30.4173 100.5,33.5C 98.076,33.8076 95.7427,33.4742 93.5,32.5C 94.1272,31.5832 94.4606,30.5832 94.5,29.5C 96.0737,28.0158 97.407,26.3492 98.5,24.5 Z"/></g>
<g><path style="opacity:0.984" fill="#fffefd" d="M 202.5,3.5 C 206.167,3.5 209.833,3.5 213.5,3.5C 212.887,9.89635 211.887,16.2297 210.5,22.5C 216.598,23.1167 222.265,22.45 227.5,20.5C 228.372,14.8091 229.372,9.14243 230.5,3.5C 233.833,3.5 237.167,3.5 240.5,3.5C 243.572,3.18259 246.572,3.51592 249.5,4.5C 247.653,11.4028 246.319,18.4028 245.5,25.5C 243.038,35.3015 240.871,45.3015 239,55.5C 236.196,57.3444 233.03,58.0111 229.5,57.5C 226.15,57.665 222.817,57.4983 219.5,57C 221.277,50.6163 222.61,44.1163 223.5,37.5C 221.167,37.5 218.833,37.5 216.5,37.5C 213.5,37.5 210.5,37.5 207.5,37.5C 205.784,44.0817 204.45,50.7484 203.5,57.5C 199.5,57.5 195.5,57.5 191.5,57.5C 189.143,57.6633 186.81,57.4966 184.5,57C 188.482,39.257 192.149,21.4236 195.5,3.5C 197.833,3.5 200.167,3.5 202.5,3.5 Z"/></g>
<g><path style="opacity:0.871" fill="#f9bf84" d="M 91.5,5.5 C 91.573,7.02694 90.9063,8.02694 89.5,8.5C 89.427,6.97306 90.0937,5.97306 91.5,5.5 Z"/></g>
<g><path style="opacity:0.963" fill="#f4a24a" d="M 227.5,20.5 C 222.265,22.45 216.598,23.1167 210.5,22.5C 211.887,16.2297 212.887,9.89635 213.5,3.5C 209.833,3.5 206.167,3.5 202.5,3.5C 202.804,2.85013 203.137,2.18346 203.5,1.5C 210.134,0.503311 216.8,0.169977 223.5,0.5C 222.423,6.88527 221.09,13.2186 219.5,19.5C 222.086,20.48 224.753,20.8134 227.5,20.5 Z"/></g>
<g><path style="opacity:0.812" fill="#f9bb7b" d="M 89.5,8.5 C 89.573,10.0269 88.9063,11.0269 87.5,11.5C 87.427,9.97306 88.0937,8.97306 89.5,8.5 Z"/></g>
<g><path style="opacity:0.889" fill="#f4a54e" d="M 29.5,-0.5 C 35.5,-0.5 41.5,-0.5 47.5,-0.5C 54.6473,1.07441 59.9806,5.07441 63.5,11.5C 53.3976,2.4724 41.7309,-0.0276024 28.5,4C 16.0015,8.99508 9.00146,18.1617 7.5,31.5C 6.68618,33.631 6.18618,35.9644 6,38.5C 4.85516,38.3809 3.68849,38.0476 2.5,37.5C 1.69145,17.7617 10.6914,5.09499 29.5,-0.5 Z"/></g>
<g><path style="opacity:0.698" fill="#f6b978" d="M 87.5,11.5 C 87.573,13.0269 86.9063,14.0269 85.5,14.5C 85.427,12.9731 86.0937,11.9731 87.5,11.5 Z"/></g>
<g><path style="opacity:0.875" fill="#f4a34b" d="M 119.5,26.5 C 118.895,28.4812 117.895,28.8146 116.5,27.5C 114.831,19.4943 113.164,11.4943 111.5,3.5C 105.167,3.5 98.8333,3.5 92.5,3.5C 92.4142,2.5041 92.7476,1.67076 93.5,1C 100.167,0.333333 106.833,0.333333 113.5,1C 115.889,9.38959 117.889,17.8896 119.5,26.5 Z"/></g>
<g><path style="opacity:0.965" fill="#f4a34b" d="M 255.5,26.5 C 254.279,27.0283 253.113,27.695 252,28.5C 250.667,27.1667 249.333,27.1667 248,28.5C 246.583,27.9221 245.75,26.9221 245.5,25.5C 246.319,18.4028 247.653,11.4028 249.5,4.5C 246.572,3.51592 243.572,3.18259 240.5,3.5C 240.5,2.5 240.5,1.5 240.5,0.5C 247.167,0.5 253.833,0.5 260.5,0.5C 259.341,9.29344 257.674,17.9601 255.5,26.5 Z"/></g>
<g><path style="opacity:0.565" fill="#f6b571" d="M 85.5,14.5 C 85.573,16.0269 84.9063,17.0269 83.5,17.5C 83.427,15.9731 84.0937,14.9731 85.5,14.5 Z"/></g>
<g><path style="opacity:0.812" fill="#f9c082" d="M 82.5,19.5 C 82.573,21.0269 81.9063,22.0269 80.5,22.5C 80.427,20.9731 81.0937,19.9731 82.5,19.5 Z"/></g>
<g><path style="opacity:0.698" fill="#f7bf7c" d="M 80.5,22.5 C 80.573,24.0269 79.9063,25.0269 78.5,25.5C 78.427,23.9731 79.0937,22.9731 80.5,22.5 Z"/></g>
<g><path style="opacity:0.565" fill="#f6bb74" d="M 78.5,25.5 C 78.573,27.0269 77.9063,28.0269 76.5,28.5C 76.427,26.9731 77.0937,25.9731 78.5,25.5 Z"/></g>
<g><path style="opacity:0.962" fill="#f5ac58" d="M 159.5,16.5 C 159.33,17.8221 159.663,18.9887 160.5,20C 166.121,21.822 171.788,23.4886 177.5,25C 186.118,29.8478 188.618,37.0145 185,46.5C 184.623,47.9423 183.79,48.9423 182.5,49.5C 181.451,49.4021 180.285,49.4021 179,49.5C 178.283,48.9558 177.783,48.2891 177.5,47.5C 181.729,38.7311 179.729,31.8977 171.5,27C 165.81,25.229 160.144,23.3957 154.5,21.5C 153.269,20.3493 153.269,19.1827 154.5,18C 156.025,16.9914 157.692,16.4914 159.5,16.5 Z"/></g>
<g><path style="opacity:0.376" fill="#f5b163" d="M 98.5,24.5 C 97.407,26.3492 96.0737,28.0158 94.5,29.5C 95.1283,26.91 96.295,24.5766 98,22.5C 98.4643,23.0944 98.631,23.7611 98.5,24.5 Z"/></g>
<g><path style="opacity:0.812" fill="#fac287" d="M 75.5,30.5 C 75.573,32.0269 74.9063,33.0269 73.5,33.5C 73.427,31.9731 74.0937,30.9731 75.5,30.5 Z"/></g>
<g><path style="opacity:0.296" fill="#f7ad5c" d="M 94.5,29.5 C 94.4606,30.5832 94.1272,31.5832 93.5,32.5C 95.7427,33.4742 98.076,33.8076 100.5,33.5C 97.5,34.8333 94.5,34.8333 91.5,33.5C 92.0256,31.7697 93.0256,30.4363 94.5,29.5 Z"/></g>
<g><path style="opacity:1" fill="#fbd9b2" d="M 91.5,33.5 C 94.5,34.8333 97.5,34.8333 100.5,33.5C 101.043,33.56 101.376,33.8933 101.5,34.5C 97.8333,35.8333 94.1667,35.8333 90.5,34.5C 90.6236,33.8933 90.9569,33.56 91.5,33.5 Z"/></g>
<g><path style="opacity:0.745" fill="#f7c17e" d="M 73.5,33.5 C 73.573,35.0269 72.9063,36.0269 71.5,36.5C 71.427,34.9731 72.0937,33.9731 73.5,33.5 Z"/></g>
<g><path style="opacity:0.679" fill="#f5b05e" d="M 47.5,37.5 C 46.578,39.8163 44.9113,41.483 42.5,42.5C 41.8333,42.5 41.1667,42.5 40.5,42.5C 42.7706,40.7341 44.9373,38.7341 47,36.5C 47.3988,36.7284 47.5654,37.0618 47.5,37.5 Z"/></g>
<g><path style="opacity:0.62" fill="#f7bd77" d="M 71.5,36.5 C 71.573,38.0269 70.9063,39.0269 69.5,39.5C 69.427,37.9731 70.0937,36.9731 71.5,36.5 Z"/></g>
<g><path style="opacity:0.78" fill="#f6b467" d="M 153.5,44.5 C 147.826,45.1562 142.826,43.8229 138.5,40.5C 138.735,39.9033 139.235,39.5699 140,39.5C 144.571,41.2976 149.071,42.9643 153.5,44.5 Z"/></g>
<g><path style="opacity:0.968" fill="#f6af5b" d="M 245.5,25.5 C 245.75,26.9221 246.583,27.9221 248,28.5C 249.333,27.1667 250.667,27.1667 252,28.5C 253.113,27.695 254.279,27.0283 255.5,26.5C 253.628,37.1916 251.628,47.8583 249.5,58.5C 242.646,58.824 235.979,58.4907 229.5,57.5C 233.03,58.0111 236.196,57.3444 239,55.5C 240.871,45.3015 243.038,35.3015 245.5,25.5 Z"/></g>
<g><path style="opacity:1" fill="#fdddb9" d="M 40.5,42.5 C 41.1667,42.5 41.8333,42.5 42.5,42.5C 39.96,44.4127 37.2933,44.746 34.5,43.5C 36.5,43.1667 38.5,42.8333 40.5,42.5 Z"/></g>
<g><path style="opacity:0.812" fill="#fac78c" d="M 68.5,41.5 C 68.573,43.0269 67.9063,44.0269 66.5,44.5C 66.427,42.9731 67.0937,41.9731 68.5,41.5 Z"/></g>
<g><path style="opacity:0.745" fill="#f7c486" d="M 66.5,44.5 C 66.573,46.0269 65.9063,47.0269 64.5,47.5C 64.427,45.9731 65.0937,44.9731 66.5,44.5 Z"/></g>
<g><path style="opacity:0.876" fill="#fbd9b0" d="M 103.5,48.5 C 97.1579,48.3338 90.8246,48.5005 84.5,49C 83.9558,49.7172 83.2891,50.2172 82.5,50.5C 82.4142,49.5041 82.7476,48.6708 83.5,48C 90.3464,47.1794 97.013,47.346 103.5,48.5 Z"/></g>
<g><path style="opacity:0.839" fill="#f7b565" d="M 7.5,31.5 C 7.21011,35.9362 7.71011,40.2695 9,44.5C 16.4367,56.6031 27.27,61.2698 41.5,58.5C 28.2794,62.1946 16.7794,59.1946 7,49.5C 4.64603,45.797 3.14603,41.797 2.5,37.5C 3.68849,38.0476 4.85516,38.3809 6,38.5C 6.18618,35.9644 6.68618,33.631 7.5,31.5 Z"/></g>
<g><path style="opacity:0.847" fill="#f7b361" d="M 119.5,26.5 C 122.296,36.6794 124.962,47.0128 127.5,57.5C 120.678,58.8181 114.011,58.8181 107.5,57.5C 112.833,57.5 118.167,57.5 123.5,57.5C 121.797,47.3554 119.464,37.3554 116.5,27.5C 117.895,28.8146 118.895,28.4812 119.5,26.5 Z"/></g>
<g><path style="opacity:0.951" fill="#f8b769" d="M 177.5,47.5 C 177.783,48.2891 178.283,48.9558 179,49.5C 180.285,49.4021 181.451,49.4021 182.5,49.5C 178.89,54.6502 173.89,57.8169 167.5,59C 159.988,59.8218 152.655,59.6552 145.5,58.5C 150.179,58.6658 154.845,58.4992 159.5,58C 167.165,57.1324 173.165,53.6324 177.5,47.5 Z"/></g>
<g><path style="opacity:0.914" fill="#f7b362" d="M 216.5,37.5 C 214.659,44.3737 213.326,51.3737 212.5,58.5C 205.313,58.8245 198.313,58.4912 191.5,57.5C 195.5,57.5 199.5,57.5 203.5,57.5C 204.45,50.7484 205.784,44.0817 207.5,37.5C 210.5,37.5 213.5,37.5 216.5,37.5 Z"/></g>
<g><path style="opacity:0.62" fill="#f8c17f" d="M 64.5,47.5 C 64.573,49.0269 63.9063,50.0269 62.5,50.5C 62.427,48.9731 63.0937,47.9731 64.5,47.5 Z"/></g>
<g><path style="opacity:0.812" fill="#fbc991" d="M 61.5,52.5 C 61.573,54.0269 60.9063,55.0269 59.5,55.5C 59.427,53.9731 60.0937,52.9731 61.5,52.5 Z"/></g>
<g><path style="opacity:0.063" fill="#f6ba71" d="M 82.5,50.5 C 81.9213,53.3311 80.588,55.6644 78.5,57.5C 79.0787,54.6689 80.412,52.3356 82.5,50.5 Z"/></g>
<g><path style="opacity:0.732" fill="#f8b767" d="M 59.5,55.5 C 65.412,57.4563 71.7453,58.1229 78.5,57.5C 71.656,58.8188 64.656,58.8188 57.5,57.5C 57.8555,56.4777 58.5222,55.811 59.5,55.5 Z"/></g>
<g><path style="opacity:0.97" fill="#fffefe" d="M 185.5,82.5 C 188.306,84.475 190.639,86.975 192.5,90C 188.641,93.0316 184.974,96.1983 181.5,99.5C 180.749,100.573 179.749,100.74 178.5,100C 177.934,99.0053 177.267,98.172 176.5,97.5C 166.921,91.7921 159.754,94.1255 155,104.5C 153.805,109.6 154.638,114.267 157.5,118.5C 158.622,119.63 159.956,120.297 161.5,120.5C 167.897,121.3 173.23,119.3 177.5,114.5C 179.519,116.19 181.519,117.856 183.5,119.5C 185.006,121.789 186.173,124.123 187,126.5C 183.731,129.883 179.897,132.383 175.5,134C 164.045,137.189 153.379,135.689 143.5,129.5C 137.958,124.905 135.291,118.905 135.5,111.5C 136.211,94.9554 144.544,84.4554 160.5,80C 169.111,78.7716 177.445,79.6049 185.5,82.5 Z"/></g>
<g><path style="opacity:0.982" fill="#fffefd" d="M 61.5,100.5 C 59.0869,102.887 56.4202,105.054 53.5,107C 54.745,107.791 56.0783,108.291 57.5,108.5C 60.6619,113.43 61.3285,118.764 59.5,124.5C 55.4021,130.222 49.7355,133.388 42.5,134C 29.8377,134.5 17.1711,134.667 4.5,134.5C 7.24481,117.111 10.2448,99.7775 13.5,82.5C 19.7613,81.2072 26.2613,80.5405 33,80.5C 40.2419,80.388 47.4085,80.888 54.5,82C 62.862,85.9746 65.1953,92.1413 61.5,100.5 Z M 29.5,96.5 C 32.7281,96.2994 35.8948,96.6328 39,97.5C 40.7491,97.7483 41.5824,98.7483 41.5,100.5C 37.5483,101.272 33.5483,101.605 29.5,101.5C 29.5,99.8333 29.5,98.1667 29.5,96.5 Z M 25.5,118.5 C 29.8461,118.334 34.1794,118.501 38.5,119C 39.056,119.383 39.3893,119.883 39.5,120.5C 35.03,121.486 30.3633,121.819 25.5,121.5C 25.5,120.5 25.5,119.5 25.5,118.5 Z"/></g>
<g><path style="opacity:0.974" fill="#fffefe" d="M 114.5,82.5 C 118.708,99.7886 122.708,117.122 126.5,134.5C 120.642,134.178 114.975,134.511 109.5,135.5C 108.069,134.22 107.402,132.553 107.5,130.5C 107.5,128.833 107.5,127.167 107.5,125.5C 100.137,125.169 92.8032,125.503 85.5,126.5C 84.1667,128.833 82.8333,131.167 81.5,133.5C 75.4481,134.206 69.4481,134.873 63.5,135.5C 62.6236,135.631 61.9569,135.298 61.5,134.5C 72.7085,116.582 84.0418,98.7487 95.5,81C 98.6667,80.8333 101.833,80.6667 105,80.5C 108.576,80.5152 111.742,81.1818 114.5,82.5 Z M 102.5,105.5 C 103.15,107.435 103.483,109.435 103.5,111.5C 101.833,111.5 100.167,111.5 98.5,111.5C 99.4746,109.205 100.808,107.205 102.5,105.5 Z"/></g>
<g><path style="opacity:0.974" fill="#fffefd" d="M 223.5,82.5 C 221.386,87.5644 220.219,92.8977 220,98.5C 224.695,94.9696 228.862,90.9696 232.5,86.5C 234.63,84.8729 236.63,83.0396 238.5,81C 245.833,80.3333 253.167,80.3333 260.5,81C 259.944,81.3826 259.611,81.8826 259.5,82.5C 251.646,88.9307 243.98,95.5973 236.5,102.5C 235.188,103.145 234.188,104.145 233.5,105.5C 239.293,114.917 244.959,124.417 250.5,134C 245.649,134.174 240.982,134.674 236.5,135.5C 234.473,135.662 232.473,135.495 230.5,135C 228.601,132.012 226.601,129.179 224.5,126.5C 223.78,122.489 221.78,119.656 218.5,118C 214.456,122.647 212.456,128.147 212.5,134.5C 208.958,134.187 205.625,134.521 202.5,135.5C 198.988,136.055 195.988,135.388 193.5,133.5C 194.167,133.5 194.5,133.167 194.5,132.5C 194.5,131.167 194.5,129.833 194.5,128.5C 198.195,112.697 201.528,96.6965 204.5,80.5C 211.255,79.8771 217.588,80.5437 223.5,82.5 Z"/></g>
<g><path style="opacity:1" fill="#fac378" d="M 223.5,82.5 C 226.5,82.5 229.5,82.5 232.5,82.5C 232.5,83.8333 232.5,85.1667 232.5,86.5C 228.862,90.9696 224.695,94.9696 220,98.5C 220.219,92.8977 221.386,87.5644 223.5,82.5 Z"/></g>
<g><path style="opacity:0.952" fill="#fac67b" d="M 41.5,100.5 C 41.5824,98.7483 40.7491,97.7483 39,97.5C 35.8948,96.6328 32.7281,96.2994 29.5,96.5C 29.5,95.5 29.5,94.5 29.5,93.5C 33.9017,93.2281 38.2351,93.5614 42.5,94.5C 43.949,96.9119 43.6157,98.9119 41.5,100.5 Z"/></g>
<g><path style="opacity:0.927" fill="#fac579" d="M 185.5,82.5 C 192.25,83.5383 197.25,87.0383 200.5,93C 195.999,96.9982 191.332,100.831 186.5,104.5C 185.145,102.479 183.479,100.812 181.5,99.5C 184.974,96.1983 188.641,93.0316 192.5,90C 190.639,86.975 188.306,84.475 185.5,82.5 Z"/></g>
<g><path style="opacity:0.962" fill="#fac478" d="M 259.5,82.5 C 263.833,82.5 268.167,82.5 272.5,82.5C 272.5,82.8333 272.5,83.1667 272.5,83.5C 264.167,90.8333 255.833,98.1667 247.5,105.5C 247.225,103.158 246.392,103.158 245,105.5C 243.667,104.167 242.333,104.167 241,105.5C 239.667,102.833 238.333,102.833 237,105.5C 236.517,104.552 236.351,103.552 236.5,102.5C 243.98,95.5973 251.646,88.9307 259.5,82.5 Z"/></g>
<g><path style="opacity:0.95" fill="#fbc77d" d="M 176.5,97.5 C 162.69,99.4579 157.69,107.125 161.5,120.5C 159.956,120.297 158.622,119.63 157.5,118.5C 154.638,114.267 153.805,109.6 155,104.5C 159.754,94.1255 166.921,91.7921 176.5,97.5 Z"/></g>
<g><path style="opacity:0.895" fill="#fbcc86" d="M 102.5,105.5 C 100.808,107.205 99.4746,109.205 98.5,111.5C 96.9317,112.473 95.265,112.64 93.5,112C 96.1258,107.916 98.6258,103.75 101,99.5C 102.319,101.25 102.819,103.25 102.5,105.5 Z"/></g>
<g><path style="opacity:0.826" fill="#fbcb84" d="M 61.5,100.5 C 61.2241,103.719 59.8907,106.385 57.5,108.5C 56.0783,108.291 54.745,107.791 53.5,107C 56.4202,105.054 59.0869,102.887 61.5,100.5 Z"/></g>
<g><path style="opacity:0.933" fill="#fcce86" d="M 39.5,120.5 C 39.3893,119.883 39.056,119.383 38.5,119C 34.1794,118.501 29.8461,118.334 25.5,118.5C 25.5,116.833 25.5,115.167 25.5,113.5C 30.5111,113.334 35.5111,113.501 40.5,114C 43.4017,116.864 43.0684,119.031 39.5,120.5 Z"/></g>
<g><path style="opacity:0.956" fill="#fdd18a" d="M 236.5,102.5 C 236.351,103.552 236.517,104.552 237,105.5C 238.333,102.833 239.667,102.833 241,105.5C 242.333,104.167 243.667,104.167 245,105.5C 246.392,103.158 247.225,103.158 247.5,105.5C 246.524,106.815 245.524,108.148 244.5,109.5C 250.626,119.584 256.626,129.751 262.5,140C 254.812,140.831 247.145,140.665 239.5,139.5C 238.479,138.099 237.479,136.765 236.5,135.5C 240.982,134.674 245.649,134.174 250.5,134C 244.959,124.417 239.293,114.917 233.5,105.5C 234.188,104.145 235.188,103.145 236.5,102.5 Z"/></g>
<g><path style="opacity:0.918" fill="#fdd28d" d="M 114.5,82.5 C 115.5,82.5 116.5,82.5 117.5,82.5C 121.516,101.899 125.85,121.232 130.5,140.5C 123.8,140.83 117.134,140.497 110.5,139.5C 109.754,138.264 109.421,136.93 109.5,135.5C 114.975,134.511 120.642,134.178 126.5,134.5C 122.708,117.122 118.708,99.7886 114.5,82.5 Z"/></g>
<g><path style="opacity:0.933" fill="#fdd590" d="M 107.5,130.5 C 100.825,130.334 94.1583,130.5 87.5,131C 85.9594,133.916 84.2927,136.749 82.5,139.5C 75.1893,140.665 67.856,140.831 60.5,140C 61.3862,138.385 62.3862,136.885 63.5,135.5C 69.4481,134.873 75.4481,134.206 81.5,133.5C 82.8333,131.167 84.1667,128.833 85.5,126.5C 92.8032,125.503 100.137,125.169 107.5,125.5C 107.5,127.167 107.5,128.833 107.5,130.5 Z"/></g>
<g><path style="opacity:0.957" fill="#fdd38c" d="M 13.5,82.5 C 10.2448,99.7775 7.24481,117.111 4.5,134.5C 17.1711,134.667 29.8377,134.5 42.5,134C 49.7355,133.388 55.4021,130.222 59.5,124.5C 58.4754,132.694 53.8087,137.527 45.5,139C 30.2246,140.435 14.8913,140.935 -0.5,140.5C -0.5,138.833 -0.5,137.167 -0.5,135.5C 3.52827,118.03 7.19494,100.363 10.5,82.5C 11.5,82.5 12.5,82.5 13.5,82.5 Z"/></g>
<g><path style="opacity:0.937" fill="#fdd590" d="M 183.5,119.5 C 187.438,122.098 191.105,125.098 194.5,128.5C 194.5,129.833 194.5,131.167 194.5,132.5C 193.833,132.5 193.5,132.833 193.5,133.5C 187.366,138.652 180.366,141.652 172.5,142.5C 170.5,142.5 168.5,142.5 166.5,142.5C 157.637,141.813 150.137,138.146 144,131.5C 143.536,130.906 143.369,130.239 143.5,129.5C 153.379,135.689 164.045,137.189 175.5,134C 179.897,132.383 183.731,129.883 187,126.5C 186.173,124.123 185.006,121.789 183.5,119.5 Z"/></g>
<g><path style="opacity:0.963" fill="#fdd48f" d="M 224.5,126.5 C 222.994,131.03 221.994,135.697 221.5,140.5C 214.833,140.5 208.167,140.5 201.5,140.5C 201.629,138.784 201.962,137.117 202.5,135.5C 205.625,134.521 208.958,134.187 212.5,134.5C 212.456,128.147 214.456,122.647 218.5,118C 221.78,119.656 223.78,122.489 224.5,126.5 Z"/></g>
</svg>
