<?xml version="1.0" encoding="UTF-8"?>
<!DOCTYPE svg PUBLIC "-//W3C//DTD SVG 1.1//EN" "http://www.w3.org/Graphics/SVG/1.1/DTD/svg11.dtd">
<svg xmlns="http://www.w3.org/2000/svg" version="1.1" width="77px" height="104px" style="shape-rendering:geometricPrecision; text-rendering:geometricPrecision; image-rendering:optimizeQuality; fill-rule:evenodd; clip-rule:evenodd" xmlns:xlink="http://www.w3.org/1999/xlink">
<g><path style="opacity:0.979" fill="#083cc3" d="M 54.5,-0.5 C 55.1667,-0.5 55.8333,-0.5 56.5,-0.5C 60.0302,4.23404 62.1968,9.56737 63,15.5C 63.5454,22.2665 63.2121,28.9332 62,35.5C 66.2995,32.4018 71.1328,30.7351 76.5,30.5C 76.5,31.1667 76.5,31.8333 76.5,32.5C 73.805,36.7379 71.9716,41.4046 71,46.5C 70.9105,55.0653 71.7439,63.5653 73.5,72C 71.7651,90.5648 61.7651,101.065 43.5,103.5C 41.1667,103.5 38.8333,103.5 36.5,103.5C 27.7269,102.379 19.3935,99.5456 11.5,95C 5.29849,89.7467 1.29849,83.2467 -0.5,75.5C -0.5,69.5 -0.5,63.5 -0.5,57.5C 1.84929,50.4764 5.51595,44.1431 10.5,38.5C 11.7334,42.3332 11.7334,46.1665 10.5,50C 11.1731,53.539 12.0064,57.039 13,60.5C 13.7583,47.1958 18.925,36.0291 28.5,27C 36.2973,22.348 43.464,16.848 50,10.5C 52.5754,7.27377 54.0754,3.60711 54.5,-0.5 Z"/></g>
</svg>
