<?xml version="1.0" encoding="UTF-8"?>
<!DOCTYPE svg PUBLIC "-//W3C//DTD SVG 1.1//EN" "http://www.w3.org/Graphics/SVG/1.1/DTD/svg11.dtd">
<svg xmlns="http://www.w3.org/2000/svg" version="1.1" width="88px" height="65px" style="shape-rendering:geometricPrecision; text-rendering:geometricPrecision; image-rendering:optimizeQuality; fill-rule:evenodd; clip-rule:evenodd" xmlns:xlink="http://www.w3.org/1999/xlink">
<g><path style="opacity:0.986" fill="#083cc2" d="M 6.5,-0.5 C 22.8333,-0.5 39.1667,-0.5 55.5,-0.5C 61.6078,2.92237 64.4411,8.2557 64,15.5C 68.2471,12.2916 72.7471,9.45825 77.5,7C 82.2167,5.57134 85.55,7.07134 87.5,11.5C 87.5,25.1667 87.5,38.8333 87.5,52.5C 86.0384,53.4577 84.7051,54.6244 83.5,56C 81.5,56.6667 79.5,56.6667 77.5,56C 72.7471,53.5417 68.2471,50.7084 64,47.5C 64.5208,54.6735 61.6875,59.8401 55.5,63C 39.1667,63.6667 22.8333,63.6667 6.5,63C 3.64238,61.3059 1.30904,59.1393 -0.5,56.5C -0.5,39.8333 -0.5,23.1667 -0.5,6.5C 1.5,3.83333 3.83333,1.5 6.5,-0.5 Z M 35.5,13.5 C 41.487,12.9773 43.487,15.4773 41.5,21C 38.4904,23.2219 35.9904,22.7219 34,19.5C 33.2516,17.1599 33.7516,15.1599 35.5,13.5 Z"/></g>
</svg>
