<svg xmlns="http://www.w3.org/2000/svg" width="198.528" height="26.156" viewBox="0 0 198.528 26.156">
  <g id="VIP_group" transform="translate(-490.353 -1763.372)">
    <path id="_24223" data-name=" 24223" d="M17.787-12.177h6.765l-1.98,9.966a14.154,14.154,0,0,1-4.24,2.029A17.968,17.968,0,0,1,13.2.528a14.1,14.1,0,0,1-6.22-1.3A9.833,9.833,0,0,1,2.822-4.422,9.915,9.915,0,0,1,1.353-9.8a13.646,13.646,0,0,1,1.881-7.161,13.044,13.044,0,0,1,5.247-4.9A16.38,16.38,0,0,1,16.2-23.628q7.194,0,10.494,4.521L21.12-14.784a6.5,6.5,0,0,0-2.343-1.964,6.961,6.961,0,0,0-2.937-.577,6.758,6.758,0,0,0-3.514.891,5.95,5.95,0,0,0-2.31,2.491A7.976,7.976,0,0,0,9.207-10.3,4.236,4.236,0,0,0,10.56-7.013a5.318,5.318,0,0,0,3.729,1.237,7.808,7.808,0,0,0,2.277-.33ZM50.028-15.51a9,9,0,0,1-1.633,5.363,9.665,9.665,0,0,1-4.6,3.415L47.652,0H39.567L36.3-5.808H34.386L33.231,0H25.443l4.62-23.1H40.425q4.554,0,7.078,2A6.726,6.726,0,0,1,50.028-15.51Zm-7.887.759q0-2.343-2.9-2.343H36.63l-1.089,5.412h3.2a3.6,3.6,0,0,0,2.508-.809A2.9,2.9,0,0,0,42.141-14.751ZM61.677.528A12.743,12.743,0,0,1,56.314-.512a7.838,7.838,0,0,1-3.465-2.954,8.248,8.248,0,0,1-1.2-4.488,13.247,13.247,0,0,1,.264-2.442L54.45-23.1h7.788L59.73-10.527a8.093,8.093,0,0,0-.2,1.683,3.062,3.062,0,0,0,.792,2.31,3.213,3.213,0,0,0,2.31.759,3.371,3.371,0,0,0,2.673-1.089,8.107,8.107,0,0,0,1.485-3.663L69.3-23.1h7.656L74.349-10.065a13.423,13.423,0,0,1-4.224,7.92A12.668,12.668,0,0,1,61.677.528ZM90.783-23.1q4.62,0,7.161,2.013a6.79,6.79,0,0,1,2.541,5.643,9.182,9.182,0,0,1-1.436,5.115A9.428,9.428,0,0,1,94.958-6.9,14.6,14.6,0,0,1,88.8-5.676H84.81L83.688,0H75.9l4.62-23.1ZM89.2-11.682a3.6,3.6,0,0,0,2.508-.809,2.9,2.9,0,0,0,.891-2.261q0-2.343-2.9-2.343H87.087L86-11.682ZM113.421.528a13.886,13.886,0,0,1-6.187-1.3,9.651,9.651,0,0,1-4.092-3.646A10.087,10.087,0,0,1,101.706-9.8a13.827,13.827,0,0,1,1.865-7.177,12.861,12.861,0,0,1,5.181-4.9,15.847,15.847,0,0,1,7.507-1.749,13.886,13.886,0,0,1,6.188,1.3,9.651,9.651,0,0,1,4.092,3.646,10.087,10.087,0,0,1,1.436,5.379,13.827,13.827,0,0,1-1.865,7.178,12.861,12.861,0,0,1-5.181,4.9A15.847,15.847,0,0,1,113.421.528Zm.66-6.3a5.475,5.475,0,0,0,3.218-.957,6.128,6.128,0,0,0,2.1-2.574,8.521,8.521,0,0,0,.726-3.531,4.449,4.449,0,0,0-1.2-3.267,4.447,4.447,0,0,0-3.316-1.221,5.475,5.475,0,0,0-3.217.957,6.128,6.128,0,0,0-2.1,2.574,8.521,8.521,0,0,0-.726,3.531A4.449,4.449,0,0,0,110.764-7,4.447,4.447,0,0,0,114.081-5.775ZM167.607-23.1,153.219,0h-7.656l-5.148-23.1H148.4l2.871,13.464L159.621-23.1Zm.759,0h7.788L171.534,0h-7.788Zm21.813,0q4.62,0,7.161,2.013a6.79,6.79,0,0,1,2.541,5.643,9.182,9.182,0,0,1-1.436,5.115A9.428,9.428,0,0,1,194.354-6.9,14.6,14.6,0,0,1,188.2-5.676h-3.993L183.084,0H175.3l4.62-23.1ZM188.6-11.682a3.6,3.6,0,0,0,2.508-.809,2.9,2.9,0,0,0,.891-2.261q0-2.343-2.9-2.343h-2.607l-1.089,5.412Z" transform="translate(489 1789)" fill="#adb6c4"/>
    <path id="_24224" data-name="24224" d="M17.787-12.177h6.765l-1.98,9.966a14.154,14.154,0,0,1-4.24,2.029A17.968,17.968,0,0,1,13.2.528a14.1,14.1,0,0,1-6.22-1.3A9.833,9.833,0,0,1,2.822-4.422,9.915,9.915,0,0,1,1.353-9.8a13.646,13.646,0,0,1,1.881-7.161,13.044,13.044,0,0,1,5.247-4.9A16.38,16.38,0,0,1,16.2-23.628q7.194,0,10.494,4.521L21.12-14.784a6.5,6.5,0,0,0-2.343-1.964,6.961,6.961,0,0,0-2.937-.577,6.758,6.758,0,0,0-3.514.891,5.95,5.95,0,0,0-2.31,2.491A7.976,7.976,0,0,0,9.207-10.3,4.236,4.236,0,0,0,10.56-7.013a5.318,5.318,0,0,0,3.729,1.237,7.808,7.808,0,0,0,2.277-.33ZM50.028-15.51a9,9,0,0,1-1.633,5.363,9.665,9.665,0,0,1-4.6,3.415L47.652,0H39.567L36.3-5.808H34.386L33.231,0H25.443l4.62-23.1H40.425q4.554,0,7.078,2A6.726,6.726,0,0,1,50.028-15.51Zm-7.887.759q0-2.343-2.9-2.343H36.63l-1.089,5.412h3.2a3.6,3.6,0,0,0,2.508-.809A2.9,2.9,0,0,0,42.141-14.751ZM61.677.528A12.743,12.743,0,0,1,56.314-.512a7.838,7.838,0,0,1-3.465-2.954,8.248,8.248,0,0,1-1.2-4.488,13.247,13.247,0,0,1,.264-2.442L54.45-23.1h7.788L59.73-10.527a8.093,8.093,0,0,0-.2,1.683,3.062,3.062,0,0,0,.792,2.31,3.213,3.213,0,0,0,2.31.759,3.371,3.371,0,0,0,2.673-1.089,8.107,8.107,0,0,0,1.485-3.663L69.3-23.1h7.656L74.349-10.065a13.423,13.423,0,0,1-4.224,7.92A12.668,12.668,0,0,1,61.677.528ZM90.783-23.1q4.62,0,7.161,2.013a6.79,6.79,0,0,1,2.541,5.643,9.182,9.182,0,0,1-1.436,5.115A9.428,9.428,0,0,1,94.958-6.9,14.6,14.6,0,0,1,88.8-5.676H84.81L83.688,0H75.9l4.62-23.1ZM89.2-11.682a3.6,3.6,0,0,0,2.508-.809,2.9,2.9,0,0,0,.891-2.261q0-2.343-2.9-2.343H87.087L86-11.682ZM113.421.528a13.886,13.886,0,0,1-6.187-1.3,9.651,9.651,0,0,1-4.092-3.646A10.087,10.087,0,0,1,101.706-9.8a13.827,13.827,0,0,1,1.865-7.177,12.861,12.861,0,0,1,5.181-4.9,15.847,15.847,0,0,1,7.507-1.749,13.886,13.886,0,0,1,6.188,1.3,9.651,9.651,0,0,1,4.092,3.646,10.087,10.087,0,0,1,1.436,5.379,13.827,13.827,0,0,1-1.865,7.178,12.861,12.861,0,0,1-5.181,4.9A15.847,15.847,0,0,1,113.421.528Zm.66-6.3a5.475,5.475,0,0,0,3.218-.957,6.128,6.128,0,0,0,2.1-2.574,8.521,8.521,0,0,0,.726-3.531,4.449,4.449,0,0,0-1.2-3.267,4.447,4.447,0,0,0-3.316-1.221,5.475,5.475,0,0,0-3.217.957,6.128,6.128,0,0,0-2.1,2.574,8.521,8.521,0,0,0-.726,3.531A4.449,4.449,0,0,0,110.764-7,4.447,4.447,0,0,0,114.081-5.775ZM167.607-23.1,153.219,0h-7.656l-5.148-23.1H148.4l2.871,13.464L159.621-23.1Zm.759,0h7.788L171.534,0h-7.788Zm21.813,0q4.62,0,7.161,2.013a6.79,6.79,0,0,1,2.541,5.643,9.182,9.182,0,0,1-1.436,5.115A9.428,9.428,0,0,1,194.354-6.9,14.6,14.6,0,0,1,188.2-5.676h-3.993L183.084,0H175.3l4.62-23.1ZM188.6-11.682a3.6,3.6,0,0,0,2.508-.809,2.9,2.9,0,0,0,.891-2.261q0-2.343-2.9-2.343h-2.607l-1.089,5.412Z" transform="translate(489 1787)" fill="#fff"/>
  </g>
</svg>
