<svg xmlns="http://www.w3.org/2000/svg" xmlns:xlink="http://www.w3.org/1999/xlink" id="vip_left" width="24.598" height="17.847" viewBox="0 0 24.598 17.847">
  <defs>
    <linearGradient id="linear-gradient" x1="0.5" y1="1" x2="0.5" gradientUnits="objectBoundingBox">
      <stop offset="0" stop-color="#f39d42"/>
      <stop offset="1" stop-color="#fed791"/>
    </linearGradient>
  </defs>
  <path id="多边形_8" data-name="多边形 8" d="M8.923,14.609a2.486,2.486,0,0,1-2.107-1.157L1.228,4.67a2.465,2.465,0,0,1-.082-2.542A2.465,2.465,0,0,1,3.335.832H14.512a2.465,2.465,0,0,1,2.189,1.3,2.465,2.465,0,0,1-.082,2.542L11.03,13.452a2.486,2.486,0,0,1-2.107,1.157m0,.832A3.3,3.3,0,0,0,11.732,13.9l5.588-8.782A3.33,3.33,0,0,0,14.512,0H3.335A3.33,3.33,0,0,0,.526,5.117L6.114,13.9A3.3,3.3,0,0,0,8.923,15.441Z" transform="translate(15.441 0) rotate(90)" fill="url(#linear-gradient)"/>
  <path id="路径_2477" data-name="路径 2477" d="M6.114,13.9a3.33,3.33,0,0,0,5.618,0l5.588-8.782A3.33,3.33,0,0,0,14.512,0H3.335A3.33,3.33,0,0,0,.526,5.117Z" transform="translate(24.598 0) rotate(90)" fill="url(#linear-gradient)"/>
</svg>